<svg width="170" height="37" viewBox="0 0 170 37" fill="none" xmlns="http://www.w3.org/2000/svg">
<path d="M18 36.6667C18.7155 36.6667 19.2455 36.4023 19.332 36.3592L19.3403 36.3551C19.5137 36.2705 19.6472 36.1856 19.717 36.1396C19.8647 36.0424 19.9921 35.9431 20.0749 35.8765C20.2532 35.7333 20.4513 35.5589 20.6492 35.3777C21.0549 35.0062 21.5808 34.4952 22.1793 33.8824C23.3785 32.6547 24.9325 30.9541 26.4783 29.0322C28.0161 27.1203 29.5972 24.926 30.8082 22.7175C31.9776 20.5851 33 18.0898 33 15.6667C33 7.3824 26.2843 0.666672 18 0.666672C9.71573 0.666672 3 7.3824 3 15.6667C3 18.0898 4.02245 20.5851 5.19179 22.7175C6.4028 24.926 7.9839 27.1203 9.5217 29.0322C11.0675 30.9541 12.6215 32.6547 13.8207 33.8824C14.4192 34.4952 14.9451 35.0062 15.3508 35.3777C15.5487 35.5589 15.7468 35.7333 15.9251 35.8765C16.0079 35.9431 16.1353 36.0424 16.283 36.1396C16.3528 36.1856 16.4863 36.2705 16.6597 36.3551L16.668 36.3592C16.7545 36.4023 17.2845 36.6667 18 36.6667Z" fill="#FF7043"/>
<path d="M10.5227 20.6774C11.6267 19.6803 12.3996 18.3235 12.6566 16.7917H9.06958C9.24736 18.2173 9.75857 19.5394 10.5227 20.6774Z" fill="white"/>
<path d="M10.5227 10.6559C9.75857 11.7939 9.24736 13.116 9.06958 14.5417H12.6566C12.3996 13.0099 11.6267 11.653 10.5227 10.6559Z" fill="white"/>
<path d="M12 8.95835C13.329 7.76878 15.0138 6.96839 16.875 6.7363V14.5417H14.9303C14.6548 12.3318 13.578 10.3708 12 8.95835Z" fill="white"/>
<path d="M19.125 6.7363V14.5417H21.0696C21.3451 12.3318 22.4219 10.3708 24 8.95835C22.6709 7.76878 20.9862 6.96839 19.125 6.7363Z" fill="white"/>
<path d="M25.4772 10.6559C24.3732 11.653 23.6003 13.0099 23.3433 14.5417H26.9303C26.7525 13.116 26.2413 11.7939 25.4772 10.6559Z" fill="white"/>
<path d="M26.9303 16.7917H23.3433C23.6003 18.3235 24.3732 19.6803 25.4772 20.6774C26.2413 19.5394 26.7525 18.2173 26.9303 16.7917Z" fill="white"/>
<path d="M24 22.375C22.6709 23.5646 20.9861 24.365 19.125 24.597V16.7917H21.0696C21.3451 19.0015 22.4219 20.9626 24 22.375Z" fill="white"/>
<path d="M16.875 24.597V16.7917H14.9303C14.6548 19.0015 13.578 20.9626 12 22.375C13.329 23.5646 15.0138 24.365 16.875 24.597Z" fill="white"/>
<g clip-path="url(#clip0_188_120)">
<path d="M47.9354 15.7109C48.1823 15.6058 48.4368 15.52 48.6967 15.4543C49.0373 15.3578 49.3892 15.3084 49.7428 15.3076C50.2717 15.2906 50.7982 15.3867 51.2882 15.5895C51.469 15.6534 51.6322 15.7601 51.7642 15.9008C51.8962 16.0415 51.9933 16.2121 52.0473 16.3984C52.2069 17.0095 52.3576 17.5801 52.4991 18.1103C52.6392 18.6419 52.7748 19.1484 52.9058 19.6342C53.0369 20.12 53.1679 20.599 53.2922 21.0756C53.4164 21.5523 53.5407 22.0541 53.6582 22.5766H53.7666C53.8992 21.66 54.0174 20.7907 54.1213 19.9688C54.223 19.1392 54.3179 18.328 54.406 17.5305C54.4941 16.733 54.5845 15.9401 54.6726 15.1587C54.7607 14.3772 54.8488 13.582 54.9369 12.7754C55.4665 12.4655 56.0675 12.3034 56.6788 12.3056C57.1728 12.2926 57.6609 12.4162 58.0909 12.6631C58.4885 12.9014 58.6874 13.304 58.6874 13.8708C58.6777 14.3382 58.6445 14.8047 58.588 15.2687C58.5202 15.8737 58.4343 16.5497 58.3236 17.2945C58.2129 18.0392 58.0841 18.823 57.9373 19.6434C57.7904 20.4638 57.6345 21.2475 57.4741 21.9923C57.3137 22.737 57.1465 23.4131 56.9771 24.0181C56.8517 24.4948 56.6932 24.9619 56.5026 25.4159C56.1875 25.6714 55.8175 25.848 55.4227 25.9316C54.9181 26.0647 54.3987 26.1317 53.8773 26.1309C53.2812 26.1471 52.6871 26.0531 52.1241 25.8536C51.6451 25.6657 51.3559 25.3953 51.252 25.0585C51.0622 24.4626 50.8566 23.7538 50.6352 22.9318C50.4138 22.1099 50.1788 21.2078 49.9303 20.2254C49.7225 21.1956 49.5086 22.1428 49.2887 23.067C49.0688 23.9913 48.8707 24.7743 48.6945 25.4159C48.4054 25.6611 48.0656 25.8373 47.7004 25.9316C47.2274 26.069 46.7374 26.1361 46.2454 26.1309C45.632 26.1404 45.0212 26.0467 44.438 25.8536C43.9025 25.6657 43.5523 25.3953 43.3897 25.0585C43.2157 24.6718 43.0721 24.2718 42.9604 23.8622C42.8068 23.3306 42.6486 22.7279 42.4859 22.0496C42.3233 21.3712 42.1583 20.6356 41.9889 19.845C41.8194 19.0544 41.6658 18.2638 41.537 17.4732C41.4082 16.6826 41.2704 15.9126 41.1529 15.1587C41.0355 14.4047 40.9474 13.715 40.8864 13.0962C41.1431 12.8718 41.4337 12.6908 41.7471 12.56C42.1234 12.3941 42.5298 12.3105 42.9401 12.3148C43.4255 12.2952 43.9056 12.4237 44.3182 12.6837C44.6767 12.9297 44.9026 13.3437 44.996 13.9258C45.228 15.4535 45.4223 16.7216 45.5789 17.7299C45.7356 18.7382 45.8583 19.567 45.9472 20.2163C46.0421 20.864 46.1121 21.3682 46.1573 21.7287C46.2002 22.0839 46.2454 22.3681 46.2906 22.5789H46.399C46.5331 21.98 46.6581 21.4278 46.7741 20.9221C46.8916 20.4156 47.0136 19.9023 47.1401 19.389C47.2666 18.8757 47.3931 18.3234 47.5242 17.7322C47.6552 17.1409 47.7885 16.4695 47.9354 15.7109Z" fill="#FF7043"/>
<path d="M65.9555 26.3142C65.1363 26.3213 64.3211 26.1968 63.5403 25.9453C62.8259 25.7141 62.1655 25.3375 61.5996 24.8384C61.0349 24.3248 60.5903 23.6899 60.2982 22.98C59.9661 22.1495 59.8046 21.2589 59.8238 20.3629C59.8018 19.4912 59.9635 18.6247 60.2982 17.8215C60.5749 17.1699 60.9874 16.5868 61.5072 16.1121C62.0271 15.6375 62.642 15.2825 63.3099 15.0716C63.9664 14.8548 64.6527 14.745 65.3432 14.7462C66.0679 14.7368 66.7885 14.8579 67.4715 15.1037C68.0796 15.3237 68.6415 15.658 69.1275 16.0891C69.5891 16.5045 69.9574 17.0156 70.2075 17.5878C70.4687 18.1865 70.6005 18.8351 70.5938 19.4898C70.6077 19.7029 70.5775 19.9165 70.5051 20.117C70.4327 20.3175 70.3198 20.5004 70.1736 20.654C69.846 20.9436 69.4379 21.1229 69.0055 21.1673L63.5561 21.9946C63.6368 22.239 63.7669 22.4637 63.9381 22.6543C64.1093 22.8449 64.3177 22.9972 64.5502 23.1014C65.0877 23.3573 65.6759 23.4843 66.2695 23.4726C66.8474 23.4788 67.4233 23.4017 67.9798 23.2435C68.4391 23.12 68.8805 22.9359 69.2925 22.6958C69.5361 22.855 69.7402 23.0691 69.8889 23.3214C70.0459 23.5765 70.1297 23.8709 70.1307 24.1716C70.1381 24.486 70.0543 24.7957 69.8896 25.0622C69.7249 25.3286 69.4866 25.5401 69.2044 25.6703C68.7103 25.9331 68.1753 26.1075 67.6228 26.1859C67.071 26.2706 66.5136 26.3135 65.9555 26.3142ZM65.3387 17.519C65.0244 17.512 64.7123 17.5738 64.4237 17.7001C64.1842 17.8051 63.9699 17.9614 63.7956 18.1584C63.6346 18.3412 63.511 18.5547 63.4319 18.7863C63.3505 19.0125 63.3018 19.2495 63.2873 19.4898L67.0603 18.8642C66.9926 18.5222 66.823 18.2094 66.5745 17.9682C66.4108 17.81 66.2163 17.6883 66.0035 17.6109C65.7906 17.5336 65.5642 17.5023 65.3387 17.519Z" fill="#FF7043"/>
<path d="M76.5447 25.8674C76.2939 25.9277 76.0396 25.972 75.7834 26.0003C75.4431 26.0439 75.1006 26.0661 74.7576 26.0668C74.4546 26.0712 74.1519 26.0451 73.8539 25.9888C73.6188 25.9473 73.3962 25.8517 73.2032 25.7093C73.0216 25.5649 72.8844 25.3709 72.8079 25.1501C72.7095 24.8473 72.6644 24.5292 72.6746 24.2106V13.6691C72.6669 13.537 72.6853 13.4047 72.7287 13.28C72.7722 13.1552 72.8398 13.0405 72.9276 12.9427C73.1263 12.7537 73.364 12.612 73.6235 12.5279C74.1783 12.3364 74.7516 12.2051 75.3338 12.136C75.9738 12.0554 76.6182 12.0149 77.2632 12.0146C79.292 12.0146 80.8434 12.4546 81.9173 13.3345C82.9913 14.2145 83.5282 15.4077 83.5282 16.914C83.5372 17.5898 83.4215 18.2614 83.1871 18.894C82.9653 19.4723 82.6178 19.9924 82.1704 20.4156C81.6813 20.8636 81.1025 21.199 80.4737 21.3987C79.7064 21.6431 78.9055 21.7607 78.1014 21.7471H76.5357L76.5447 25.8674ZM77.6902 18.6901C78.2011 18.7253 78.7071 18.5705 79.1136 18.2546C79.4449 17.9644 79.6106 17.5206 79.6106 16.9232C79.6257 16.6798 79.587 16.4361 79.4975 16.2097C79.408 15.9834 79.2699 15.7801 79.0932 15.6147C78.7483 15.3091 78.2445 15.1564 77.5818 15.1564C77.3558 15.1564 77.1502 15.1564 76.9966 15.1678C76.8374 15.1754 76.6789 15.1937 76.5221 15.2228V18.6901H77.6902Z" fill="#FF7043"/>
<path d="M89.0296 25.9338L88.3134 26.0553C87.996 26.1077 87.6748 26.1337 87.3532 26.1332C87.0612 26.1364 86.7694 26.1142 86.4811 26.0668C86.2461 26.0321 86.0228 25.9401 85.8305 25.7986C85.6486 25.6567 85.5081 25.4674 85.4238 25.2509C85.317 24.9579 85.2679 24.6465 85.2792 24.3343V11.3683L85.9954 11.2446C86.3128 11.1923 86.634 11.1662 86.9556 11.1667C87.2476 11.1645 87.5393 11.1867 87.8277 11.2331C88.0623 11.2694 88.2853 11.3612 88.4784 11.5012C88.6598 11.6442 88.8008 11.8331 88.8873 12.0489C88.9932 12.3422 89.0416 12.6535 89.0296 12.9656V25.9338Z" fill="#FF7043"/>
<path d="M95.8008 14.7462C96.5324 14.7392 97.2621 14.8215 97.9743 14.9914C98.5751 15.1315 99.1441 15.3867 99.6507 15.743C100.108 16.0697 100.476 16.5079 100.722 17.0172C100.983 17.5872 101.111 18.2106 101.097 18.839V23.8531C101.11 24.1995 100.995 24.5385 100.776 24.8041C100.556 25.0552 100.299 25.2701 100.014 25.4411C99.058 26.0232 97.7129 26.3143 95.9793 26.3143C95.2703 26.3202 94.563 26.2433 93.8714 26.0851C93.2999 25.9583 92.7547 25.7311 92.2605 25.4136C91.8244 25.128 91.4681 24.7334 91.2257 24.2678C90.974 23.7724 90.8482 23.221 90.8597 22.6637C90.8597 21.6325 91.161 20.8411 91.7635 20.2896C92.3659 19.7381 93.2998 19.3951 94.565 19.2607L97.4592 18.9536V18.7955C97.4671 18.603 97.4177 18.4126 97.3173 18.2491C97.217 18.0856 97.0703 17.9565 96.8966 17.8788C96.3825 17.6666 95.8288 17.5711 95.2744 17.5992C94.7259 17.598 94.1788 17.658 93.6432 17.778C93.1531 17.8846 92.6731 18.0341 92.2085 18.2249C91.9965 18.0657 91.8291 17.8532 91.7228 17.6084C91.5926 17.3412 91.5245 17.0472 91.524 16.749C91.5071 16.4159 91.6045 16.0872 91.7996 15.8187C92.0321 15.5555 92.3234 15.3528 92.6491 15.2274C93.1374 15.0488 93.6447 14.9288 94.1606 14.8699C94.7042 14.7933 95.252 14.752 95.8008 14.7462ZM95.9793 23.5391C96.2566 23.5369 96.5332 23.5108 96.8062 23.4612C97.0427 23.431 97.2721 23.3589 97.484 23.2481V21.4583L95.9025 21.5935C95.5491 21.6066 95.2028 21.6982 94.8881 21.8616C94.7654 21.923 94.6627 22.019 94.5926 22.1381C94.5224 22.2573 94.4877 22.3944 94.4927 22.5331C94.4891 22.6729 94.5181 22.8116 94.5774 22.9378C94.6367 23.0641 94.7245 23.1743 94.8338 23.2595C95.0485 23.4474 95.4258 23.5391 95.9793 23.5391Z" fill="#FF7043"/>
<path d="M104.802 23.1816C104.639 22.8104 104.468 22.391 104.285 21.9281C104.102 21.4652 103.909 20.9358 103.711 20.34C103.512 19.7442 103.306 19.0613 103.092 18.2913C102.877 17.5213 102.656 16.6413 102.414 15.6399C102.655 15.4091 102.935 15.2237 103.241 15.0922C103.597 14.9361 103.982 14.858 104.37 14.863C104.818 14.846 105.262 14.958 105.649 15.1862C105.988 15.4039 106.237 15.8095 106.399 16.4053L108.141 22.5583H108.229C108.405 22.0518 108.579 21.5019 108.749 20.9037C108.918 20.3056 109.083 19.6915 109.244 19.0567C109.404 18.4219 109.558 17.7894 109.696 17.157C109.833 16.5245 109.955 15.9011 110.057 15.2893C110.595 15.0034 111.194 14.8569 111.801 14.863C112.25 14.8458 112.695 14.9621 113.08 15.1976C113.419 15.4222 113.588 15.8102 113.588 16.3618C113.581 16.8316 113.529 17.2997 113.435 17.7596C113.331 18.2882 113.194 18.8512 113.026 19.4486C112.856 20.0467 112.657 20.6608 112.429 21.2956C112.201 21.9304 111.962 22.5514 111.713 23.1633C111.465 23.7751 111.205 24.3526 110.94 24.8957C110.676 25.4388 110.419 25.9316 110.168 26.3624C109.826 26.9846 109.444 27.5826 109.022 28.1521C108.727 28.5529 108.386 28.9175 108.008 29.2384C107.72 29.4779 107.391 29.6599 107.036 29.7746C106.714 29.8696 106.38 29.9182 106.045 29.919C105.77 29.9306 105.497 29.8873 105.239 29.7913C104.982 29.6953 104.746 29.5487 104.544 29.3598C104.157 28.9703 103.917 28.4552 103.867 27.9046C104.358 27.515 104.829 27.1005 105.279 26.6626C105.733 26.2241 106.16 25.7573 106.557 25.2647C106.253 25.1544 105.977 24.974 105.753 24.7376C105.458 24.4611 105.141 23.9424 104.802 23.1816Z" fill="#FF7043"/>
<path d="M113.726 24.1441C113.709 23.5664 113.915 23.0047 114.3 22.5789C114.724 22.1743 115.284 21.949 115.866 21.949C116.448 21.949 117.008 22.1743 117.431 22.5789C117.802 23.0139 118.005 23.5694 118.005 24.1441C118.005 24.7188 117.802 25.2743 117.431 25.7093C117.007 26.1129 116.447 26.3375 115.866 26.3375C115.284 26.3375 114.724 26.1129 114.3 25.7093C113.915 25.2835 113.709 24.7218 113.726 24.1441Z" fill="#FF7043"/>
<path d="M141.515 19.0636C141.531 18.8754 141.505 18.686 141.438 18.5097C141.371 18.3335 141.265 18.1749 141.129 18.0461C140.829 17.8166 140.458 17.7021 140.083 17.723C139.789 17.7228 139.496 17.7598 139.211 17.833C138.946 17.8983 138.696 18.0125 138.472 18.1699V25.9338C138.244 25.9942 138.011 26.0386 137.776 26.0668C137.451 26.1125 137.124 26.1347 136.796 26.1332C136.504 26.1364 136.212 26.1142 135.924 26.0668C135.688 26.0325 135.465 25.9405 135.273 25.7986C135.091 25.6567 134.951 25.4674 134.866 25.2509C134.758 24.9582 134.709 24.6466 134.722 24.3343V17.6336C134.706 17.2865 134.795 16.9427 134.977 16.6482C135.164 16.3775 135.399 16.1443 135.671 15.9607C136.248 15.5664 136.885 15.2714 137.557 15.0876C138.379 14.8561 139.23 14.7435 140.083 14.7531C141.74 14.7531 143.02 15.122 143.924 15.8599C144.828 16.5978 145.279 17.6237 145.279 18.9375V25.9407C145.051 26.0011 144.818 26.0455 144.584 26.0736C144.259 26.1194 143.931 26.1416 143.603 26.1401C143.312 26.1434 143.021 26.1212 142.733 26.0736C142.488 26.0401 142.256 25.9439 142.058 25.7941C141.876 25.6521 141.735 25.4628 141.651 25.2464C141.543 24.9536 141.494 24.642 141.506 24.3297L141.515 19.0636Z" fill="#717375"/>
<path d="M153.243 26.3142C152.423 26.3215 151.608 26.1969 150.826 25.9453C150.112 25.7136 149.451 25.337 148.885 24.8384C148.321 24.3248 147.876 23.6899 147.584 22.9799C147.252 22.1495 147.09 21.2589 147.109 20.3629C147.087 19.4912 147.249 18.6247 147.584 17.8215C147.861 17.1699 148.273 16.5868 148.793 16.1121C149.313 15.6375 149.928 15.2825 150.595 15.0716C151.252 14.8548 151.938 14.745 152.629 14.7462C153.354 14.7368 154.074 14.8579 154.757 15.1037C155.365 15.3237 155.927 15.658 156.413 16.0891C156.875 16.5045 157.243 17.0156 157.493 17.5878C157.754 18.1865 157.886 18.8351 157.879 19.4898C157.893 19.7029 157.863 19.9165 157.791 20.117C157.718 20.3175 157.605 20.5004 157.459 20.654C157.132 20.9436 156.724 21.1229 156.291 21.1673L150.842 21.9946C150.922 22.239 151.053 22.4637 151.224 22.6543C151.395 22.8449 151.603 22.9972 151.836 23.1014C152.373 23.3573 152.962 23.4843 153.555 23.4726C154.133 23.4788 154.709 23.4017 155.265 23.2435C155.725 23.12 156.166 22.9359 156.578 22.6958C156.822 22.855 157.026 23.0691 157.175 23.3214C157.332 23.5765 157.415 23.8709 157.416 24.1716C157.424 24.486 157.34 24.7957 157.175 25.0622C157.011 25.3286 156.772 25.5401 156.49 25.6703C155.996 25.9331 155.461 26.1075 154.909 26.1859C154.357 26.2706 153.801 26.3135 153.243 26.3142ZM152.624 17.519C152.314 17.5137 152.006 17.5754 151.721 17.7001C151.481 17.8051 151.267 17.9614 151.093 18.1584C150.932 18.3412 150.808 18.5547 150.729 18.7863C150.647 19.0125 150.599 19.2495 150.584 19.4898L154.357 18.8642C154.29 18.5222 154.12 18.2094 153.871 17.9682C153.706 17.8085 153.51 17.6859 153.295 17.6085C153.08 17.5311 152.852 17.5006 152.624 17.519Z" fill="#717375"/>
<path d="M132.252 16.0661C131.922 15.2166 131.414 14.4497 130.763 13.8181C130.125 13.2108 129.371 12.7429 128.547 12.4431C126.768 11.8167 124.832 11.8167 123.052 12.4431C122.218 12.7427 121.458 13.2215 120.823 13.8468C120.188 14.4721 119.694 15.2292 119.374 16.0661C118.998 17.0482 118.814 18.095 118.832 19.1484C118.814 20.1952 118.994 21.236 119.361 22.2145C119.684 23.063 120.18 23.8329 120.816 24.4741C121.445 25.0939 122.198 25.5704 123.023 25.872C123.914 26.1996 124.855 26.3626 125.802 26.3532C126.748 26.3666 127.688 26.2115 128.581 25.8949C129.407 25.599 130.163 25.1306 130.8 24.5199C131.445 23.8844 131.946 23.1131 132.266 22.2604C132.635 21.2666 132.815 20.2104 132.794 19.1484C132.812 18.095 132.628 17.0482 132.252 16.0661ZM127.178 23.3329L126.753 23.4062C126.566 23.4365 126.376 23.4519 126.186 23.452C126.014 23.4535 125.843 23.4397 125.673 23.4108C125.534 23.3909 125.402 23.3366 125.289 23.2527C125.181 23.1694 125.097 23.0577 125.047 22.9295C124.984 22.7582 124.955 22.576 124.961 22.3933V17.4503L123.667 17.8605C123.519 17.7578 123.388 17.6335 123.276 17.4915C123.135 17.3023 123.065 17.0683 123.079 16.8315C123.079 16.3022 123.398 15.9309 124.031 15.7201L125.49 15.2182H125.974C126.136 15.2059 126.299 15.2292 126.451 15.2866C126.604 15.344 126.742 15.434 126.857 15.5506C126.972 15.6672 127.061 15.8077 127.117 15.9623C127.174 16.1169 127.197 16.2821 127.185 16.4466L127.178 23.3329Z" fill="#717375"/>
</g>
<defs>
<clipPath id="clip0_188_120">
<rect width="117" height="18.75" fill="white" transform="translate(40.875 11.1667)"/>
</clipPath>
</defs>
</svg>
